#N canvas 55 22 1164 856 10;
#N canvas 246 26 959 814 sms 0;
#X msg 33 162 list r a;
#X msg 51 191 list r d;
#X obj 101 557 route a d;
#X floatatom 79 694 5 0 0 0 - - -;
#X obj 101 656 unpack f f f f f f;
#X floatatom 120 694 5 0 0 0 - - -;
#X floatatom 165 695 5 0 0 0 - - -;
#X floatatom 206 695 5 0 0 0 - - -;
#X floatatom 248 696 5 0 0 0 - - -;
#X floatatom 289 696 5 0 0 0 - - -;
#X msg 27 320 close;
#X obj 101 288 convert/pd2ascii CR;
#X obj 101 450 convert/ascii2pd CR;
#X floatatom 158 68 5 0 255 0 - - -;
#X obj 101 493 route list float symbol;
#X floatatom 132 523 5 0 0 0 - - -;
#X symbolatom 180 522 10 0 0 0 - - -;
#X obj 122 317 loadbang;
#X msg 120 342 stopbit 1;
#X obj 340 644 timer;
#X obj 349 612 t b b;
#X floatatom 350 678 5 0 0 0 - - -;
#X msg 129 109 list w a 3 \$1;
#X msg 33 365 open 5;
#X msg 150 135 list w a 11 \$1;
#X msg 279 191 list w d 9 \$1;
#X msg 306 218 list w d 8 \$1;
#X obj 524 644 tgl 15 0 empty empty empty 17 7 0 10 -262144 -1 -1 0
1;
#X obj 639 639 tgl 15 0 empty empty empty 17 7 0 10 -262144 -1 -1 1
1;
#X obj 600 639 tgl 15 0 empty empty empty 17 7 0 10 -262144 -1 -1 1
1;
#X obj 557 643 tgl 15 0 empty empty empty 17 7 0 10 -262144 -1 -1 1
1;
#X msg 446 693 list w d 13 \$1;
#X msg 551 695 list w d 11 \$1;
#X msg 675 697 list w d 3 \$1;
#X msg 788 696 list w d 12 \$1;
#X msg 773 361 0 1 1 0;
#X obj 512 551 pack f f f f;
#X obj 542 598 unpack f f f f;
#X text 830 441 1;
#X msg 776 388 0 1 1 1;
#X text 822 362 4;
#X msg 776 442 1 1 1 0;
#X text 831 388 3;
#X msg 775 415 1 1 1 1;
#X text 832 414 2;
#X obj 709 283 select 0 1 2;
#X msg 555 407 0 1 1 0;
#X text 609 430 1;
#X msg 558 334 0 1 1 1;
#X text 608 310 4;
#X msg 555 431 1 1 1 0;
#X text 613 334 3;
#X msg 557 309 1 1 1 1;
#X text 609 408 2;
#X obj 423 261 select 0 1 2;
#X obj 101 425 comport 5 115200;
#X obj 223 18 inlet;
#X obj 708 253 inlet;
#X obj 424 234 inlet;
#X obj 321 128 inlet;
#X msg 558 359 0 0 1 1;
#X msg 557 382 0 0 0 1;
#X connect 0 0 11 0;
#X connect 1 0 11 0;
#X connect 2 0 4 0;
#X connect 2 0 20 0;
#X connect 4 0 3 0;
#X connect 4 1 5 0;
#X connect 4 2 6 0;
#X connect 4 3 7 0;
#X connect 4 4 8 0;
#X connect 4 5 9 0;
#X connect 10 0 55 0;
#X connect 11 0 55 0;
#X connect 12 0 14 0;
#X connect 13 0 24 0;
#X connect 13 0 22 0;
#X connect 14 0 2 0;
#X connect 14 1 15 0;
#X connect 14 2 16 0;
#X connect 17 0 18 0;
#X connect 18 0 55 0;
#X connect 19 0 21 0;
#X connect 20 0 19 0;
#X connect 20 1 19 1;
#X connect 22 0 11 0;
#X connect 23 0 55 0;
#X connect 24 0 11 0;
#X connect 25 0 11 0;
#X connect 26 0 11 0;
#X connect 27 0 31 0;
#X connect 28 0 34 0;
#X connect 29 0 33 0;
#X connect 30 0 32 0;
#X connect 31 0 11 0;
#X connect 32 0 11 0;
#X connect 33 0 11 0;
#X connect 34 0 11 0;
#X connect 35 0 36 0;
#X connect 36 0 37 0;
#X connect 37 0 27 0;
#X connect 37 1 30 0;
#X connect 37 2 29 0;
#X connect 37 3 28 0;
#X connect 39 0 36 0;
#X connect 41 0 36 0;
#X connect 43 0 36 0;
#X connect 45 0 41 0;
#X connect 45 1 43 0;
#X connect 45 2 39 0;
#X connect 45 3 35 0;
#X connect 46 0 36 0;
#X connect 48 0 36 0;
#X connect 50 0 36 0;
#X connect 52 0 36 0;
#X connect 54 0 50 0;
#X connect 54 1 46 0;
#X connect 54 2 48 0;
#X connect 54 3 52 0;
#X connect 55 0 12 0;
#X connect 56 0 55 0;
#X connect 57 0 45 0;
#X connect 58 0 54 0;
#X connect 59 0 25 0;
#X connect 59 0 26 0;
#X connect 60 0 36 0;
#X connect 61 0 36 0;
#X coords 0 -1 1 1 85 30 1 100 100;
#X restore 740 785 pd sms;
#X msg 726 747 close;
#X msg 726 727 open 5;
#X obj 647 790 + 1;
#X obj 613 790 int;
#X obj 542 758 tgl 15 0 empty empty empty 17 7 0 10 -262144 -1 -1 0
1;
#X obj 562 758 metro 60;
#X floatatom 675 761 5 0 0 0 - - -;
#X obj 782 753 mod 4;
#X obj 954 796 int;
#X obj 954 752 tgl 15 0 empty empty empty 17 7 0 10 -262144 -1 -1 0
1;
#X obj 954 771 metro 60;
#X floatatom 1016 767 5 0 0 0 - - -;
#N canvas 747 24 642 693 prehravac 0;
#X obj 132 549 line~;
#X obj 216 245 output~;
#X obj 198 353 soundfiler;
#X floatatom 222 379 20 0 0 0 - - -;
#N canvas 54 87 1268 663 (subpatch) 0;
#X array array1 1.26086e+07 float 0;
#X coords 0 1 1.26086e+07 -1 150 40 1;
#X restore 110 121 graph;
#X obj 361 379 s delka;
#X obj 365 122 r delka;
#X floatatom 365 143 15 0 0 0 - - -;
#X floatatom 201 212 5 0 0 0 - - -;
#X obj 346 143 bng 15 250 50 0 empty empty empty 17 7 0 10 -262144
-1 -1;
#X obj 135 573 tabread4~ array1;
#X obj 132 598 snapshot~;
#X obj 112 190 tgl 15 0 empty empty play 20 8 0 10 -262144 -1 -1 0
1;
#X text 164 409 change direction;
#X obj 143 407 bng 15 250 50 0 empty empty empty 0 -6 0 8 -262144 -1
-1;
#X obj 154 437 bng 15 250 50 0 empty empty empty 0 -6 0 8 -262144 -1
-1;
#X text 177 439 reset to minimum \, wait for next bang before output
;
#X obj 113 212 bng 15 250 50 0 empty empty rewind 20 8 0 10 -262144
-1 -1;
#X text 189 464 reset and output imediately;
#X floatatom 112 237 5 0 0 1 sample/ms - -;
#X obj 176 486 bng 15 250 50 0 empty empty empty 0 -6 0 8 -262144 -1
-1;
#X obj 132 504 counter;
#X text 198 488 reset to max \, wait for next bang before output *
;
#X floatatom 158 524 15 0 0 0 - - -;
#X msg 26 143 2000;
#X msg 356 81 \; array1 write preset1.txt;
#X obj 117 448 bng 15 250 50 0 empty empty empty 17 7 0 10 -262144
-1 -1;
#X text 239 212 vterin;
#X obj 199 166 bng 15 250 50 0 empty empty export_txt 17 7 0 10 -262144
-1 -1;
#X obj 111 168 bng 15 250 50 0 empty empty load_wav 17 7 0 10 -262144
-1 -1;
#X obj 200 190 tgl 15 0 empty empty snapshot 20 8 0 10 -262144 -1 -1
0 1;
#X obj 132 642 outlet;
#X obj 29 97 inlet;
#X obj 33 510 inlet;
#X obj 47 559 t b b;
#X obj 365 164 / 44100;
#X obj 426 541 tgl 15 0 empty empty empty 17 7 0 10 -262144 -1 -1 0
1;
#X obj 389 578 metro 50;
#X obj 55 407 metro 100;
#X obj 272 604 sel;
#X obj 273 630 outlet;
#X obj 323 355 bng 15 250 50 0 empty empty empty 17 7 0 10 -262144
-1 -1;
#X obj 330 602 outlet;
#X msg 201 304 read -maxsize 1e+09 05.wav array1;
#X connect 0 0 10 0;
#X connect 2 0 3 0;
#X connect 3 0 5 0;
#X connect 3 0 39 1;
#X connect 6 0 7 0;
#X connect 7 0 35 0;
#X connect 9 0 7 0;
#X connect 10 0 1 0;
#X connect 10 0 1 1;
#X connect 10 0 11 0;
#X connect 11 0 31 0;
#X connect 12 0 38 0;
#X connect 14 0 21 1;
#X connect 15 0 21 2;
#X connect 17 0 21 3;
#X connect 19 0 38 1;
#X connect 20 0 21 4;
#X connect 21 0 23 0;
#X connect 23 0 0 0;
#X connect 23 0 39 0;
#X connect 23 0 42 0;
#X connect 24 0 19 0;
#X connect 26 0 21 0;
#X connect 28 0 25 0;
#X connect 29 0 43 0;
#X connect 32 0 19 0;
#X connect 33 0 34 0;
#X connect 34 0 11 0;
#X connect 34 1 21 0;
#X connect 35 0 8 0;
#X connect 36 0 37 0;
#X connect 37 0 26 0;
#X connect 38 0 21 0;
#X connect 38 0 11 0;
#X connect 39 0 40 0;
#X connect 41 0 3 0;
#X connect 43 0 2 0;
#X coords 0 -1 1 1 200 200 1 100 100;
#X restore 69 59 pd prehravac;
#X floatatom 69 266 30 0 0 0 - - -;
#X msg 48 31 1000;
#X msg 85 29 500;
#X msg 127 31 100;
#X floatatom 70 334 30 0 0 0 - - -;
#X msg 162 29 5;
#X obj 853 794 tgl 15 0 empty empty brzda 17 7 0 10 -262144 -1 -1 1
1;
#X obj 132 510 i;
#X obj 161 510 f;
#X obj 133 486 t f b;
#X floatatom 132 560 5 0 0 0 - - -;
#X obj 194 509 i;
#X obj 223 509 f;
#X obj 195 485 t f b;
#X floatatom 194 559 5 0 0 0 - - -;
#X floatatom 133 458 5 0 0 0 - - -;
#X obj 188 359 i;
#X obj 41 353 bng 15 250 50 0 empty empty empty 17 7 0 10 -262144 -1
-1;
#X obj 154 294 hsl 300 30 0 200 0 0 empty empty empty -2 -8 0 10 -257985
-1 -1 14950 1;
#X obj 69 310 + 100;
#X obj 132 649 gate 2;
#X obj 195 535 <;
#X obj 133 536 >;
#X obj 131 584 sel 1;
#X obj 196 586 sel 1;
#X msg 129 610 1;
#X msg 195 608 2;
#X floatatom 133 684 5 0 0 0 - - -;
#X floatatom 174 684 5 0 0 0 - - -;
#X obj 839 754 mod 4;
#X obj 862 116 i;
#X obj 891 116 f;
#X obj 863 92 t f b;
#X obj 864 148 -;
#X floatatom 861 216 5 0 0 0 - - -;
#X obj 912 217 < 0;
#X obj 866 251 *;
#X obj 914 239 sel 1;
#X msg 914 269 -1;
#X floatatom 855 276 5 0 0 0 - - -;
#X obj 957 238 sel 1;
#X msg 958 269 1;
#X obj 956 217 > 0;
#X obj 865 172 t f f f;
#X obj 271 25 bng 15 250 50 0 empty empty empty 17 7 0 10 -262144 -1
-1;
#X obj 1014 211 == 0;
#X obj 1014 232 sel 1;
#X obj 1016 274 delay 5;
#X msg 1019 305 0;
#X obj 800 452 + 1;
#X obj 766 452 int;
#X obj 695 410 tgl 15 0 empty empty empty 17 7 0 10 -262144 -1 -1 1
1;
#X obj 715 410 metro 60;
#X floatatom 759 386 5 0 0 0 - - -;
#X obj 695 382 > 0;
#X floatatom 759 562 5 0 0 0 - - -;
#X obj 810 495 sel 1;
#X msg 773 495 0;
#X obj 761 584 bng 15 250 50 0 empty empty empty 17 7 0 10 -262144
-1 -1;
#X obj 836 474 - 1;
#X obj 818 586 + 1;
#X obj 784 586 int;
#X floatatom 784 649 30 0 0 0 - - -;
#X obj 577 797 bng 15 250 50 0 empty empty empty 17 7 0 10 -262144
-1 -1;
#X msg 839 44 5;
#X msg 883 45 10;
#X msg 927 47 15;
#X msg 966 45 0;
#X obj 797 543 bng 15 250 50 0 empty empty empty 17 7 0 10 -262144
-1 -1;
#X msg 713 312 0;
#X msg 952 152 150;
#X obj 797 323 t f f;
#X obj 856 303 sel 0;
#X obj 932 772 bng 15 250 50 0 empty empty empty 17 7 0 10 -262144
-1 -1;
#X obj 407 24 pipe 50;
#X obj 350 49 + 1;
#X obj 316 49 int;
#X floatatom 285 140 30 0 0 0 - - -;
#X msg 383 89 0;
#X obj 71 287 * 100;
#X obj 1022 470 tgl 15 0 empty empty empty 17 7 0 10 -262144 -1 -1
1 1;
#X obj 961 544 gate 2;
#X msg 999 377 2;
#X msg 944 421 1;
#X obj 1075 146 loadbang;
#X msg 1095 445 1;
#X floatatom 964 828 5 0 0 0 - - -;
#X msg 994 602 0;
#N canvas 990 392 450 300 cas 0;
#X obj 101 101 cnv 15 83 28 empty empty empty 20 12 0 14 -128992 -66577
0;
#X obj 242 132 -;
#X obj 271 135 i;
#X obj 240 110 t f f;
#X floatatom 243 156 5 0 0 0 - - -;
#X floatatom 110 107 3 0 0 0 - - -;
#X floatatom 143 107 5 0 0 0 - - -;
#X obj 243 176 * 60;
#X obj 219 65 inlet;
#X text 131 106 :;
#X connect 1 0 4 0;
#X connect 2 0 1 1;
#X connect 2 0 5 0;
#X connect 3 0 1 0;
#X connect 3 1 2 0;
#X connect 4 0 7 0;
#X connect 7 0 6 0;
#X connect 8 0 3 0;
#X coords 0 -1 1 1 85 30 2 100 100;
#X restore 285 190 pd cas;
#X msg 641 682 -1;
#X msg 606 684 1;
#X msg 678 730 30;
#X obj 988 796 - 1;
#X obj 1023 491 metro 10000;
#X obj 914 772 bng 15 250 50 0 empty empty empty 17 7 0 10 -262144
-1 -1;
#X msg 1110 491 10000;
#X floatatom 616 815 5 0 0 0 - - -;
#X obj 698 620 > 300;
#X obj 698 666 tgl 15 0 empty empty empty 17 7 0 10 -262144 -1 -1 0
1;
#X obj 698 643 sel 1;
#X obj 656 654 tgl 15 0 empty empty empty 17 7 0 10 -262144 -1 -1 1
1;
#X obj 656 631 sel 1;
#X obj 656 608 < 0;
#X obj 664 71 loadbang;
#X obj 285 164 / 44100;
#X floatatom 227 399 5 0 0 0 - - -;
#X obj 287 245 tgl 30 0 empty empty empty 17 7 0 10 -258113 -1 -1 0
1;
#X floatatom 334 253 15 0 0 0 - - -;
#X obj 453 419 tgl 15 0 empty empty empty 17 7 0 10 -262144 -1 -1 0
1;
#X obj 451 454 metro 500;
#X msg 502 425 50;
#X msg 537 425 500;
#X msg 535 462 1000;
#X msg 498 393 250;
#X obj 72 355 / 200;
#X obj 73 379 * 300;
#X msg 779 409 30;
#X msg 472 14 30;
#X connect 1 0 0 0;
#X connect 2 0 0 0;
#X connect 3 0 4 1;
#X connect 4 0 3 0;
#X connect 4 0 8 0;
#X connect 4 0 110 0;
#X connect 5 0 6 0;
#X connect 6 0 4 0;
#X connect 7 0 6 1;
#X connect 8 0 0 3;
#X connect 9 0 100 0;
#X connect 9 0 106 0;
#X connect 9 0 8 0;
#X connect 10 0 11 0;
#X connect 11 0 9 0;
#X connect 12 0 11 1;
#X connect 13 0 14 0;
#X connect 13 1 120 0;
#X connect 13 2 121 0;
#X connect 14 0 93 0;
#X connect 15 0 13 0;
#X connect 16 0 13 0;
#X connect 17 0 13 0;
#X connect 18 0 31 0;
#X connect 18 0 32 0;
#X connect 18 0 128 0;
#X connect 19 0 13 0;
#X connect 20 0 0 1;
#X connect 21 0 22 1;
#X connect 21 0 36 0;
#X connect 22 0 36 1;
#X connect 23 0 21 0;
#X connect 23 1 22 0;
#X connect 24 0 37 0;
#X connect 25 0 26 1;
#X connect 25 0 35 0;
#X connect 26 0 35 1;
#X connect 27 0 25 0;
#X connect 27 1 26 0;
#X connect 28 0 38 0;
#X connect 29 0 23 0;
#X connect 29 0 27 0;
#X connect 30 0 29 0;
#X connect 30 0 46 0;
#X connect 30 0 119 0;
#X connect 33 0 18 0;
#X connect 34 0 41 0;
#X connect 34 1 42 0;
#X connect 35 0 28 0;
#X connect 36 0 24 0;
#X connect 37 0 39 0;
#X connect 38 0 40 0;
#X connect 39 0 34 0;
#X connect 40 0 34 0;
#X connect 43 0 0 2;
#X connect 44 0 47 0;
#X connect 44 0 45 1;
#X connect 45 0 47 1;
#X connect 46 0 44 0;
#X connect 46 1 45 0;
#X connect 47 0 57 0;
#X connect 48 0 50 0;
#X connect 49 0 51 0;
#X connect 50 0 53 0;
#X connect 51 0 52 0;
#X connect 52 0 50 1;
#X connect 52 0 74 1;
#X connect 52 0 97 0;
#X connect 53 0 85 0;
#X connect 53 0 86 0;
#X connect 54 0 55 0;
#X connect 55 0 50 1;
#X connect 55 0 74 1;
#X connect 55 0 96 0;
#X connect 56 0 54 0;
#X connect 57 0 48 0;
#X connect 57 1 49 0;
#X connect 57 2 56 0;
#X connect 57 2 59 0;
#X connect 58 0 90 0;
#X connect 58 0 13 1;
#X connect 59 0 60 0;
#X connect 60 0 61 0;
#X connect 61 0 62 0;
#X connect 63 0 64 1;
#X connect 64 0 63 0;
#X connect 64 0 69 0;
#X connect 64 0 70 0;
#X connect 65 0 66 0;
#X connect 66 0 64 0;
#X connect 67 0 66 1;
#X connect 68 0 65 0;
#X connect 69 0 72 0;
#X connect 70 0 71 0;
#X connect 71 0 64 1;
#X connect 71 0 82 0;
#X connect 71 0 65 0;
#X connect 72 0 75 0;
#X connect 73 0 70 1;
#X connect 74 0 75 1;
#X connect 75 0 74 0;
#X connect 75 0 76 0;
#X connect 76 0 8 0;
#X connect 76 0 9 1;
#X connect 76 0 4 1;
#X connect 76 0 111 0;
#X connect 76 0 116 0;
#X connect 77 0 4 0;
#X connect 78 0 46 0;
#X connect 79 0 46 0;
#X connect 80 0 46 0;
#X connect 81 0 46 0;
#X connect 82 0 88 0;
#X connect 83 0 64 1;
#X connect 83 0 65 0;
#X connect 83 0 64 0;
#X connect 84 0 45 1;
#X connect 85 0 68 0;
#X connect 85 1 73 0;
#X connect 86 0 88 0;
#X connect 87 0 9 0;
#X connect 88 0 58 0;
#X connect 89 0 90 1;
#X connect 90 0 89 0;
#X connect 90 0 91 0;
#X connect 91 0 118 0;
#X connect 92 0 90 1;
#X connect 93 0 33 0;
#X connect 94 0 107 0;
#X connect 95 0 87 0;
#X connect 96 0 95 0;
#X connect 97 0 95 0;
#X connect 98 0 99 0;
#X connect 98 0 84 0;
#X connect 99 0 94 0;
#X connect 101 0 9 1;
#X connect 101 0 75 1;
#X connect 103 0 3 1;
#X connect 104 0 3 1;
#X connect 105 0 6 1;
#X connect 106 0 9 1;
#X connect 107 0 95 1;
#X connect 107 0 108 0;
#X connect 109 0 107 1;
#X connect 111 0 113 0;
#X connect 113 0 112 0;
#X connect 115 0 114 0;
#X connect 116 0 115 0;
#X connect 117 0 131 0;
#X connect 117 0 130 0;
#X connect 117 0 83 0;
#X connect 118 0 102 0;
#X connect 122 0 123 0;
#X connect 123 0 58 0;
#X connect 124 0 123 1;
#X connect 125 0 123 1;
#X connect 126 0 123 1;
#X connect 127 0 123 1;
#X connect 128 0 129 0;
#X connect 129 0 30 0;
#X connect 130 0 66 1;
#X connect 131 0 88 1;
