#N canvas 525 22 934 816 10;
#X declare -lib moocow;
#N canvas 189 22 959 814 sms 0;
#X msg 28 257 list r a;
#X msg 20 167 list r d;
#X obj 101 557 route a d;
#X floatatom 63 725 5 0 0 0 - - -;
#X obj 85 687 unpack f f f f f f;
#X floatatom 104 725 5 0 0 0 - - -;
#X floatatom 149 726 5 0 0 0 - - -;
#X floatatom 190 726 5 0 0 0 - - -;
#X floatatom 232 727 5 0 0 0 - - -;
#X floatatom 273 727 5 0 0 0 - - -;
#X msg 27 320 close;
#X obj 101 288 convert/pd2ascii CR;
#X obj 101 450 convert/ascii2pd CR;
#X floatatom 158 68 5 0 255 0 - - -;
#X obj 101 493 route list float symbol;
#X floatatom 132 523 5 0 0 0 - - -;
#X symbolatom 180 522 10 0 0 0 - - -;
#X obj 122 317 loadbang;
#X msg 120 342 stopbit 1;
#X obj 313 693 timer;
#X obj 313 669 t b b;
#X floatatom 323 727 5 0 0 0 - - -;
#X msg 129 109 list w a 3 \$1;
#X msg 33 365 open 5;
#X msg 150 135 list w a 11 \$1;
#X msg 279 191 list w d 9 \$1;
#X msg 306 218 list w d 8 \$1;
#X obj 524 644 tgl 15 0 empty empty empty 17 7 0 10 -262144 -1 -1 1
1;
#X obj 639 639 tgl 15 0 empty empty empty 17 7 0 10 -262144 -1 -1 0
1;
#X obj 600 639 tgl 15 0 empty empty empty 17 7 0 10 -262144 -1 -1 1
1;
#X obj 557 643 tgl 15 0 empty empty empty 17 7 0 10 -262144 -1 -1 1
1;
#X msg 446 693 list w d 13 \$1;
#X msg 551 695 list w d 11 \$1;
#X msg 675 697 list w d 3 \$1;
#X msg 788 696 list w d 12 \$1;
#X obj 512 551 pack f f f f;
#X obj 542 598 unpack f f f f;
#X msg 555 407 0 1 1 0;
#X text 609 430 1;
#X msg 558 334 0 1 1 1;
#X text 608 310 4;
#X msg 555 431 1 1 1 0;
#X text 613 334 3;
#X msg 557 309 1 1 1 1;
#X text 609 408 2;
#X obj 423 261 select 0 1 2;
#X obj 101 425 comport 5 115200;
#X obj 223 18 inlet;
#X obj 424 234 inlet;
#X obj 321 128 inlet;
#X msg 558 359 0 0 1 1;
#X msg 557 382 0 0 0 1;
#X obj 144 612 print digitals;
#X obj 124 633 outlet;
#X obj 19 74 r lb;
#X obj 19 116 tgl 15 0 empty empty empty 17 7 0 10 -262144 -1 -1 1
1;
#X msg 19 96 1;
#X obj 20 136 metro 1000;
#X obj 293 52 r pump;
#X msg 292 81 list w d 7 \$1;
#X msg 492 100 list w d 10 \$1;
#X obj 496 77 tgl 15 0 empty empty empty 17 7 0 10 -262144 -1 -1 0
1;
#X connect 0 0 11 0;
#X connect 1 0 11 0;
#X connect 2 0 4 0;
#X connect 2 0 20 0;
#X connect 2 1 52 0;
#X connect 2 1 53 0;
#X connect 4 0 3 0;
#X connect 4 1 5 0;
#X connect 4 2 6 0;
#X connect 4 3 7 0;
#X connect 4 4 8 0;
#X connect 4 5 9 0;
#X connect 10 0 46 0;
#X connect 11 0 46 0;
#X connect 12 0 14 0;
#X connect 13 0 24 0;
#X connect 13 0 22 0;
#X connect 14 0 2 0;
#X connect 14 1 15 0;
#X connect 14 2 16 0;
#X connect 17 0 18 0;
#X connect 18 0 46 0;
#X connect 19 0 21 0;
#X connect 20 0 19 0;
#X connect 20 1 19 1;
#X connect 22 0 11 0;
#X connect 23 0 46 0;
#X connect 24 0 11 0;
#X connect 25 0 11 0;
#X connect 26 0 11 0;
#X connect 27 0 31 0;
#X connect 28 0 34 0;
#X connect 29 0 33 0;
#X connect 30 0 32 0;
#X connect 31 0 11 0;
#X connect 32 0 11 0;
#X connect 33 0 11 0;
#X connect 34 0 11 0;
#X connect 35 0 36 0;
#X connect 36 0 27 0;
#X connect 36 1 30 0;
#X connect 36 2 29 0;
#X connect 36 3 28 0;
#X connect 37 0 35 0;
#X connect 39 0 35 0;
#X connect 41 0 35 0;
#X connect 43 0 35 0;
#X connect 45 0 41 0;
#X connect 45 1 37 0;
#X connect 45 2 39 0;
#X connect 45 3 43 0;
#X connect 46 0 12 0;
#X connect 47 0 46 0;
#X connect 48 0 45 0;
#X connect 49 0 25 0;
#X connect 49 0 26 0;
#X connect 50 0 35 0;
#X connect 51 0 35 0;
#X connect 54 0 56 0;
#X connect 55 0 57 0;
#X connect 56 0 55 0;
#X connect 57 0 1 0;
#X connect 58 0 59 0;
#X connect 59 0 11 0;
#X connect 60 0 11 0;
#X connect 61 0 60 0;
#X coords 0 -1 1 1 85 30 1 100 100;
#X restore 587 745 pd sms;
#X msg 535 742 close;
#X msg 534 717 open 5;
#X obj 529 680 + 1;
#X obj 495 680 int;
#X obj 475 655 tgl 15 0 empty empty empty 17 7 0 10 -262144 -1 -1 0
1;
#X obj 495 655 metro 60;
#X floatatom 557 651 5 0 0 0 - - -;
#X obj 664 719 mod 4;
#X obj 814 499 int;
#X obj 814 455 tgl 15 0 empty empty empty 17 7 0 10 -262144 -1 -1 0
1;
#X obj 814 474 metro 60;
#X floatatom 876 470 5 0 0 0 - - -;
#N canvas 178 294 642 693 prehravac 0;
#X obj 132 549 line~;
#X obj 198 353 soundfiler;
#X floatatom 222 379 20 0 0 0 - - -;
#N canvas 54 87 1268 663 (subpatch) 0;
#X array array1 2.6818e+07 float 0;
#X coords 0 1 2.6818e+07 -1 150 40 1;
#X restore 110 121 graph;
#X obj 302 407 s delka;
#X obj 365 122 r delka;
#X floatatom 200 188 15 0 0 0 - - -;
#X floatatom 201 212 5 0 0 0 - - -;
#X obj 346 143 bng 15 250 50 0 empty empty empty 17 7 0 10 -262144
-1 -1;
#X obj 137 575 tabread4~ array1;
#X obj 124 607 snapshot~;
#X obj 112 190 tgl 15 0 empty empty play 20 8 0 10 -262144 -1 -1 0
1;
#X obj 276 450 bng 15 250 50 0 empty empty empty 0 -6 0 8 -262144 -1
-1;
#X text 299 452 reset to minimum \, wait for next bang before output
;
#X obj 113 212 bng 15 250 50 0 empty empty rewind 20 8 0 10 -262144
-1 -1;
#X text 311 477 reset and output imediately;
#X floatatom 112 237 5 0 0 1 sample/ms - -;
#X obj 294 477 bng 15 250 50 0 empty empty empty 0 -6 0 8 -262144 -1
-1;
#X obj 132 504 counter;
#X floatatom 158 524 15 0 0 0 - - -;
#X msg 356 81 \; array1 write preset1.txt;
#X obj 117 448 bng 15 250 50 0 empty empty empty 17 7 0 10 -262144
-1 -1;
#X text 239 212 vterin;
#X obj 199 166 bng 15 250 50 0 empty empty export_txt 17 7 0 10 -262144
-1 -1;
#X obj 111 168 bng 15 250 50 0 empty empty load_wav 17 7 0 10 -262144
-1 -1;
#X obj 123 635 outlet;
#X obj 39 111 inlet;
#X obj 33 510 inlet;
#X obj 33 532 t b b;
#X obj 365 164 / 44100;
#X obj 55 407 metro 100;
#X obj 272 604 sel;
#X obj 273 630 outlet;
#X obj 323 355 bng 15 250 50 0 empty empty empty 17 7 0 10 -262144
-1 -1;
#X obj 330 602 outlet;
#X obj 19 173 r reset;
#X obj 80 51 r lb;
#N canvas 61 431 578 443 audio 0;
#X obj 111 127 hsl 42 23 0.01 1 1 0 \$0-v \$0-v volume 7 13 1 9 -245500
-13381 -1 0 0;
#X obj 155 126 tgl 18 0 THIS_IS_HERE_TO_GET_RID_OF_THE_OUTLET \$0-dsp-toggle
dsp 2 9 1 9 -225271 -195568 -33289 1 1;
#N canvas 366 514 482 356 dsp 0;
#X obj 11 7 inlet;
#X obj 92 226 select 0 1;
#X msg 125 248 6;
#X obj 92 57 route dsp;
#X obj 92 36 receive pd;
#X obj 206 138 loadbang;
#X msg 11 220 dsp \$1;
#X obj 11 245 send pd;
#X msg 206 278 set \$1;
#X obj 206 174 value GLOBAL_PDDP_DSP;
#X msg 109 278 color \$1 20 12;
#X obj 180 309 send \$0-dsp-toggle;
#X obj 92 115 change;
#X msg 92 247 0;
#X connect 0 0 6 0;
#X connect 0 0 12 0;
#X connect 1 0 13 0;
#X connect 1 1 2 0;
#X connect 2 0 10 0;
#X connect 3 0 12 0;
#X connect 4 0 3 0;
#X connect 5 0 9 0;
#X connect 6 0 7 0;
#X connect 8 0 11 0;
#X connect 9 0 8 0;
#X connect 9 0 1 0;
#X connect 10 0 11 0;
#X connect 12 0 8 0;
#X connect 12 0 1 0;
#X connect 12 0 9 0;
#X connect 13 0 10 0;
#X restore 92 168 pd dsp logic;
#X obj 211 22 inlet~;
#X obj 96 293 line~;
#X obj 196 353 *~;
#X obj 216 383 dac~;
#X text 223 42 audio in;
#X obj 273 22 inlet~;
#X obj 258 352 *~;
#X obj 211 93 hip~ 3;
#X obj 273 93 hip~ 3;
#X obj 22 308 send pd;
#X msg 22 287 dsp 1;
#X obj 96 272 pack 0 50;
#X text 163 271 <-- make a ramp to avoid clicks or zipper noise;
#X msg 96 237 0;
#X obj 96 214 moses 0.011;
#X text 317 94 filter out DC;
#X obj 66 45 r lb;
#X msg 144 69 0;
#X connect 0 0 13 0;
#X connect 0 0 17 0;
#X connect 1 0 2 0;
#X connect 3 0 10 0;
#X connect 4 0 9 0;
#X connect 4 0 5 0;
#X connect 5 0 6 0;
#X connect 8 0 11 0;
#X connect 9 0 6 1;
#X connect 10 0 5 1;
#X connect 11 0 9 1;
#X connect 13 0 12 0;
#X connect 14 0 4 0;
#X connect 16 0 14 0;
#X connect 17 0 16 0;
#X connect 17 1 14 0;
#X connect 19 0 20 0;
#X connect 19 0 13 0;
#X connect 20 0 0 0;
#X connect 20 0 14 0;
#X coords 0 -1 1 1 85 60 1 100 100;
#X restore 210 236 pd audio;
#X msg 198 329 read -maxsize 1e+09 \$1.wav array1;
#X msg 164 328 1;
#X obj 337 303 r loader;
#X connect 0 0 9 0;
#X connect 1 0 2 0;
#X connect 2 0 4 0;
#X connect 2 0 31 1;
#X connect 5 0 6 0;
#X connect 6 0 29 0;
#X connect 8 0 6 0;
#X connect 9 0 10 0;
#X connect 9 0 37 0;
#X connect 9 0 37 1;
#X connect 10 0 25 0;
#X connect 11 0 30 0;
#X connect 12 0 18 2;
#X connect 14 0 18 3;
#X connect 16 0 30 1;
#X connect 17 0 18 4;
#X connect 18 0 19 0;
#X connect 19 0 0 0;
#X connect 19 0 31 0;
#X connect 19 0 34 0;
#X connect 21 0 18 0;
#X connect 23 0 20 0;
#X connect 24 0 39 0;
#X connect 26 0 16 0;
#X connect 27 0 28 0;
#X connect 28 0 10 0;
#X connect 28 1 18 0;
#X connect 29 0 7 0;
#X connect 30 0 18 0;
#X connect 30 0 10 0;
#X connect 31 0 32 0;
#X connect 31 0 14 0;
#X connect 33 0 2 0;
#X connect 35 0 14 0;
#X connect 36 0 24 0;
#X connect 38 0 1 0;
#X connect 39 0 38 0;
#X connect 40 0 38 0;
#X coords 0 -1 1 1 200 200 1 100 100;
#X restore 68 59 pd prehravac;
#X floatatom 69 266 30 0 0 0 - - -;
#X msg 48 31 1000;
#X msg 85 29 500;
#X msg 127 31 100;
#X floatatom 70 334 30 0 0 0 - - -;
#X msg 162 29 5;
#X obj 535 770 tgl 15 0 empty empty brzda 17 7 0 10 -262144 -1 -1 0
1;
#X obj 70 401 i;
#X obj 41 353 bng 15 250 50 0 empty empty empty 17 7 0 10 -262144 -1
-1;
#X obj 154 294 hsl 300 30 0 200 0 0 empty empty empty -2 -8 0 10 -257985
-1 -1 14949 1;
#X obj 69 310 + 100;
#X obj 673 105 i;
#X obj 702 105 f;
#X obj 674 81 t f b;
#X obj 675 137 -;
#X floatatom 672 205 5 0 0 0 - - -;
#X obj 723 206 < 0;
#X obj 677 240 *;
#X obj 725 228 sel 1;
#X msg 725 258 -1;
#X floatatom 666 265 5 0 0 0 - - -;
#X obj 768 227 sel 1;
#X msg 769 258 1;
#X obj 767 206 > 0;
#X obj 676 161 t f f f;
#X obj 271 25 bng 15 250 50 0 empty empty empty 17 7 0 10 -262144 -1
-1;
#X obj 611 441 + 1;
#X obj 577 441 int;
#X obj 506 399 tgl 15 0 empty empty empty 17 7 0 10 -262144 -1 -1 0
1;
#X obj 526 399 metro 60;
#X floatatom 570 375 5 0 0 0 - - -;
#X obj 506 371 > 0;
#X floatatom 570 551 5 0 0 0 - - -;
#X obj 621 484 sel 1;
#X obj 572 573 bng 15 250 50 0 empty empty empty 17 7 0 10 -262144
-1 -1;
#X obj 647 463 - 1;
#X obj 629 575 + 1;
#X obj 595 575 int;
#X floatatom 664 659 30 0 0 0 - - -;
#X obj 476 681 bng 15 250 50 0 empty empty empty 17 7 0 10 -262144
-1 -1;
#X msg 650 33 5;
#X msg 694 34 10;
#X msg 738 36 15;
#X msg 777 34 0;
#X obj 518 541 bng 20 250 50 0 empty empty empty 17 7 0 10 -191407
-1 -1;
#X msg 524 301 0;
#X msg 735 108 150;
#X obj 608 312 t f f;
#X obj 667 292 sel 0;
#X obj 792 475 bng 15 250 50 0 empty empty empty 17 7 0 10 -262144
-1 -1;
#X obj 407 24 pipe 50;
#X obj 319 115 + 1;
#X obj 285 115 int;
#X floatatom 285 140 30 0 0 0 - - -;
#X msg 302 91 0;
#X obj 71 287 * 100;
#X obj 792 357 tgl 15 0 empty empty empty 17 7 0 10 -262144 -1 -1 1
1;
#X obj 740 421 gate 2;
#X msg 768 328 2;
#X msg 734 329 1;
#X msg 817 326 1;
#X floatatom 824 531 5 0 0 0 - - -;
#X msg 692 544 0;
#N canvas 990 392 450 300 cas 0;
#X obj 101 101 cnv 15 83 28 empty empty empty 20 12 0 14 -128992 -66577
0;
#X obj 242 132 -;
#X obj 271 135 i;
#X obj 240 110 t f f;
#X floatatom 243 156 5 0 0 0 - - -;
#X floatatom 110 107 3 0 0 0 - - -;
#X floatatom 143 107 5 0 0 0 - - -;
#X obj 243 176 * 60;
#X obj 219 65 inlet;
#X text 131 106 :;
#X connect 1 0 4 0;
#X connect 2 0 1 1;
#X connect 2 0 5 0;
#X connect 3 0 1 0;
#X connect 3 1 2 0;
#X connect 4 0 7 0;
#X connect 7 0 6 0;
#X connect 8 0 3 0;
#X coords 0 -1 1 1 85 30 2 100 100;
#X restore 285 190 pd cas;
#X msg 513 622 -1;
#X msg 481 623 1;
#X msg 550 626 30;
#X obj 848 499 - 1;
#X obj 793 378 metro 10000;
#X obj 774 475 bng 15 250 50 0 empty empty empty 17 7 0 10 -262144
-1 -1;
#X msg 880 378 10000;
#X floatatom 495 702 5 0 0 0 - - -;
#X obj 285 164 / 44100;
#X floatatom 69 425 5 0 0 0 - - -;
#X obj 287 245 tgl 30 0 empty empty empty 17 7 0 10 -258113 -1 -1 0
1;
#X floatatom 265 508 15 0 0 0 - - -;
#X obj 72 355 / 200;
#X obj 73 379 * 300;
#X obj 32 516 s lb;
#X obj 30 454 loadbang;
#X obj 31 478 delay 100;
#X obj 79 551 s reset;
#X obj 79 531 bng 15 250 50 0 empty empty empty 17 7 0 10 -262144 -1
-1;
#X obj 619 507 t b b;
#X msg 646 530 0;
#X msg 610 533 0;
#X obj 692 516 r reset;
#X obj 564 271 r lb;
#X obj 490 4 r lb;
#X obj 794 72 r lb;
#X msg 456 3 20;
#X msg 590 398 20;
#X obj 518 571 s dal;
#X obj 406 4 r dal;
#X obj 667 321 s dal;
#X obj 79 508 delay 10000;
#X obj 249 543 f;
#X obj 363 416 r lb;
#X obj 235 521 bng 15 250 50 0 empty empty empty 17 7 0 10 -262144
-1 -1;
#X obj 249 594 httpget;
#X obj 249 616 print got;
#X msg 248 568 http://cas.famu.cz/plotter.php?msg=\$1;
#X obj 345 480 bng 15 250 50 0 empty empty empty 17 7 0 10 -262144
-1 -1;
#X obj 363 458 tgl 15 0 empty empty empty 17 7 0 10 -262144 -1 -1 1
1;
#X msg 363 438 1;
#X msg 283 542 0;
#X obj 21 713 cnv 15 150 50 empty empty empty 20 12 0 14 -4032 -66577
0;
#X obj 25 732 cnv 15 20 20 empty empty empty 20 12 0 14 -66577 -66577
0;
#X obj 48 732 cnv 15 20 20 empty empty empty 20 12 0 14 -258113 -66577
0;
#X obj 74 732 cnv 15 20 20 empty empty empty 20 12 0 14 -4160 -66577
0;
#X obj 97 732 cnv 15 20 20 empty empty empty 20 12 0 14 -257985 -66577
0;
#X obj 123 732 cnv 15 20 20 empty empty empty 20 12 0 14 -86853 -66577
0;
#X obj 146 732 cnv 15 20 20 empty empty empty 20 12 0 14 -261682 -66577
0;
#X obj 364 478 metro 1.8e+06;
#X text 20 770 http://cas.famu.cz/plotter_admin.php http://cas.famu.cz/plotter_admin.php?msg=restart
;
#X floatatom 587 780 5 0 0 0 - - -;
#X msg 282 459 -100;
#X obj 374 48 gate 2;
#X msg 338 12 1;
#X msg 374 12 2;
#N canvas 11 462 226 236 pumpa 0;
#X obj 34 186 s pump;
#X obj 61 105 delay 200;
#X obj 18 19 r lb;
#X obj 18 58 tgl 15 0 empty empty empty 17 7 0 10 -262144 -1 -1 1 1
;
#X msg 18 38 1;
#X msg 18 105 1;
#X msg 61 135 0;
#X obj -12 163 tgl 15 0 empty empty empty 17 7 0 10 -262144 -1 -1 0
1;
#X obj 18 77 metro 1.08e+07;
#X text 54 52 3h = 1.08e+07;
#X msg 162 175 -500;
#X obj 96 176 delay 100;
#X obj 164 201 outlet;
#X obj 97 203 outlet;
#X connect 1 0 6 0;
#X connect 2 0 4 0;
#X connect 3 0 8 0;
#X connect 4 0 3 0;
#X connect 5 0 7 0;
#X connect 5 0 0 0;
#X connect 6 0 0 0;
#X connect 6 0 7 0;
#X connect 6 0 10 0;
#X connect 6 0 11 0;
#X connect 8 0 5 0;
#X connect 8 0 1 0;
#X connect 10 0 12 0;
#X connect 11 0 13 0;
#X restore 210 476 pd pumpa;
#X obj 336 89 r reset;
#N canvas 38 515 450 300 nacitac 0;
#X obj 161 180 s loader;
#X obj 195 121 + 1;
#X obj 161 121 int;
#X floatatom 161 143 5 0 0 0 - - -;
#X obj 161 94 bng 15 250 50 0 empty empty empty 17 7 0 10 -262144 -1
-1;
#X msg 208 85 0;
#X obj 167 31 inlet;
#X obj 110 72 r lb;
#X msg 120 105 1;
#X connect 1 0 2 1;
#X connect 2 0 1 0;
#X connect 2 0 3 0;
#X connect 3 0 0 0;
#X connect 4 0 2 0;
#X connect 5 0 2 0;
#X connect 6 0 4 0;
#X connect 7 0 8 0;
#X connect 8 0 2 0;
#X restore 322 251 pd nacitac;
#X connect 0 0 129 0;
#X connect 1 0 0 0;
#X connect 2 0 0 0;
#X connect 3 0 4 1;
#X connect 4 0 3 0;
#X connect 4 0 8 0;
#X connect 4 0 85 0;
#X connect 5 0 6 0;
#X connect 6 0 4 0;
#X connect 7 0 6 1;
#X connect 8 0 0 2;
#X connect 9 0 75 0;
#X connect 9 0 81 0;
#X connect 9 0 8 0;
#X connect 10 0 11 0;
#X connect 11 0 9 0;
#X connect 12 0 11 1;
#X connect 13 0 14 0;
#X connect 13 1 88 0;
#X connect 13 1 136 0;
#X connect 13 2 89 0;
#X connect 14 0 69 0;
#X connect 15 0 13 1;
#X connect 16 0 13 1;
#X connect 17 0 13 1;
#X connect 18 0 22 0;
#X connect 18 0 23 0;
#X connect 18 0 90 0;
#X connect 19 0 13 1;
#X connect 20 0 0 1;
#X connect 21 0 27 0;
#X connect 21 0 87 0;
#X connect 24 0 18 0;
#X connect 25 0 28 0;
#X connect 25 0 26 1;
#X connect 26 0 28 1;
#X connect 27 0 25 0;
#X connect 27 1 26 0;
#X connect 28 0 38 0;
#X connect 29 0 31 0;
#X connect 30 0 32 0;
#X connect 31 0 34 0;
#X connect 32 0 33 0;
#X connect 33 0 31 1;
#X connect 33 0 50 1;
#X connect 33 0 73 0;
#X connect 34 0 61 0;
#X connect 34 0 62 0;
#X connect 35 0 36 0;
#X connect 36 0 31 1;
#X connect 36 0 50 1;
#X connect 36 0 72 0;
#X connect 37 0 35 0;
#X connect 38 0 29 0;
#X connect 38 1 30 0;
#X connect 38 2 37 0;
#X connect 39 0 66 0;
#X connect 39 0 13 0;
#X connect 40 0 41 1;
#X connect 41 0 40 0;
#X connect 41 0 46 0;
#X connect 41 0 47 0;
#X connect 42 0 43 0;
#X connect 43 0 41 0;
#X connect 44 0 43 1;
#X connect 45 0 42 0;
#X connect 46 0 48 0;
#X connect 47 0 97 0;
#X connect 48 0 51 0;
#X connect 49 0 47 1;
#X connect 50 0 51 1;
#X connect 51 0 50 0;
#X connect 51 0 52 0;
#X connect 52 0 8 0;
#X connect 52 0 9 1;
#X connect 52 0 4 1;
#X connect 53 0 4 0;
#X connect 54 0 27 0;
#X connect 55 0 27 0;
#X connect 56 0 27 0;
#X connect 57 0 27 0;
#X connect 58 0 106 0;
#X connect 59 0 41 1;
#X connect 59 0 42 0;
#X connect 59 0 41 0;
#X connect 60 0 26 1;
#X connect 61 0 45 0;
#X connect 61 1 49 0;
#X connect 62 0 108 0;
#X connect 63 0 9 0;
#X connect 64 0 131 1;
#X connect 65 0 66 1;
#X connect 66 0 65 0;
#X connect 66 0 67 0;
#X connect 67 0 86 0;
#X connect 68 0 66 1;
#X connect 69 0 24 0;
#X connect 70 0 82 0;
#X connect 71 0 63 0;
#X connect 72 0 71 0;
#X connect 73 0 71 0;
#X connect 74 0 70 0;
#X connect 76 0 9 1;
#X connect 76 0 51 1;
#X connect 78 0 3 1;
#X connect 79 0 3 1;
#X connect 80 0 6 1;
#X connect 81 0 9 1;
#X connect 82 0 71 1;
#X connect 82 0 83 0;
#X connect 84 0 82 1;
#X connect 86 0 77 0;
#X connect 89 0 110 1;
#X connect 90 0 91 0;
#X connect 91 0 21 0;
#X connect 93 0 94 0;
#X connect 94 0 92 0;
#X connect 94 0 109 0;
#X connect 96 0 95 0;
#X connect 97 0 99 0;
#X connect 97 0 58 0;
#X connect 97 1 98 0;
#X connect 98 0 42 0;
#X connect 99 0 41 1;
#X connect 100 0 76 0;
#X connect 100 0 97 0;
#X connect 101 0 105 0;
#X connect 101 0 59 0;
#X connect 102 0 104 0;
#X connect 102 0 132 0;
#X connect 103 0 74 0;
#X connect 103 0 60 0;
#X connect 104 0 64 1;
#X connect 105 0 43 1;
#X connect 107 0 64 0;
#X connect 109 0 96 0;
#X connect 110 0 115 0;
#X connect 111 0 118 0;
#X connect 112 0 110 0;
#X connect 113 0 114 0;
#X connect 115 0 113 0;
#X connect 117 0 127 0;
#X connect 118 0 117 0;
#X connect 119 0 89 0;
#X connect 127 0 110 0;
#X connect 127 0 116 0;
#X connect 130 0 89 0;
#X connect 131 0 39 0;
#X connect 132 0 131 0;
#X connect 133 0 131 0;
#X connect 134 0 112 0;
#X connect 134 1 89 0;
#X connect 135 0 68 0;
#X coords 0 0 10 1 0 0 0;
